# xmcd
#
# Track frame offsets:
#	150
#	12932
#	27070
#	45952
#	66775
#	80876
#	97942
#	112668
#	128155
#	143571
#	156970
#	167775
#
# Disc length: 2380 seconds
#
# Revision: 0
# Processed by: cddbd v1.5.2PL0 Copyright (c) Steve Scherf et al.
# Submitted via: EasyCDDAExtractor 11.1.0.1
#
DISCID=8a094a0c
DTITLE=Blue Highway - Through The Window Of A Train
DYEAR=2008
DGENRE=Bluegrass
TTITLE0=Life Of A Travelin' Man
TTITLE1=Through The Window Of A Train
TTITLE2=Sycamore Hollar
TTITLE3=Homeless Man
TTITLE4=Where Did The Morning Go
TTITLE5=Two Soldiers
TTITLE6=The North Cove
TTITLE7=A Week From Today
TTITLE8=My Ropin' Days Are Done
TTITLE9=Blues On Blues
TTITLE10=V-Bottom Boat
TTITLE11=Just Another Gravel In The Road
EXTD=
EXTT0=
EXTT1=
EXTT2=
EXTT3=
EXTT4=
EXTT5=
EXTT6=
EXTT7=
EXTT8=
EXTT9=
EXTT10=
EXTT11=
PLAYORDER=
